<svg width="28" height="28" viewBox="0 0 28 28" fill="none" xmlns="http://www.w3.org/2000/svg">
<path d="M14.8283 20.6611L20.6617 14.8277C20.7679 14.7168 20.8511 14.5859 20.9067 14.4427C21.0233 14.1587 21.0233 13.8401 20.9067 13.5561C20.8511 13.4129 20.7679 13.282 20.6617 13.1711L14.8283 7.33774C14.7195 7.22896 14.5904 7.14267 14.4483 7.0838C14.3062 7.02493 14.1538 6.99463 14 6.99463C13.6893 6.99463 13.3913 7.11805 13.1717 7.33774C12.952 7.55742 12.8285 7.85538 12.8285 8.16607C12.8285 8.47675 12.952 8.77471 13.1717 8.9944L17.0217 12.8327L8.16666 12.8327C7.85724 12.8327 7.56049 12.9557 7.3417 13.1744C7.1229 13.3932 6.99999 13.69 6.99999 13.9994C6.99999 14.3088 7.1229 14.6056 7.3417 14.8244C7.56049 15.0432 7.85724 15.1661 8.16666 15.1661L17.0217 15.1661L13.1717 19.0044C13.0623 19.1129 12.9755 19.2419 12.9163 19.3841C12.8571 19.5262 12.8266 19.6787 12.8266 19.8327C12.8266 19.9867 12.8571 20.1392 12.9163 20.2814C12.9755 20.4236 13.0623 20.5526 13.1717 20.6611C13.2801 20.7704 13.4091 20.8572 13.5513 20.9164C13.6935 20.9757 13.846 21.0062 14 21.0062C14.154 21.0062 14.3065 20.9757 14.4487 20.9164C14.5908 20.8572 14.7199 20.7704 14.8283 20.6611Z" fill="white"/>
</svg>
