<svg width="18" height="18" viewBox="0 0 18 18" fill="none" xmlns="http://www.w3.org/2000/svg">
<path d="M1.87499 6.645L8.62499 10.545C8.73901 10.6108 8.86834 10.6455 8.99999 10.6455C9.13164 10.6455 9.26098 10.6108 9.37499 10.545L16.125 6.645C16.2383 6.57956 16.3326 6.4856 16.3984 6.37244C16.4642 6.25929 16.4992 6.13089 16.5 6C16.5005 5.86785 16.4661 5.7379 16.4003 5.62331C16.3344 5.50873 16.2394 5.41358 16.125 5.3475L9.37499 1.455C9.26098 1.38918 9.13164 1.35452 8.99999 1.35452C8.86834 1.35452 8.73901 1.38918 8.62499 1.455L1.87499 5.3475C1.76054 5.41358 1.66558 5.50873 1.59973 5.62331C1.53387 5.7379 1.49947 5.86785 1.49999 6C1.50078 6.13089 1.53581 6.25929 1.6016 6.37244C1.66739 6.4856 1.76164 6.57956 1.87499 6.645ZM8.99999 3L14.25 6L8.99999 9L3.74999 6L8.99999 3ZM15.375 8.3775L8.99999 12L2.62499 8.3475C2.53939 8.29791 2.44483 8.26575 2.34674 8.25286C2.24866 8.23997 2.14899 8.24662 2.05349 8.27241C1.95798 8.29821 1.86853 8.34264 1.79027 8.40315C1.71201 8.46367 1.64649 8.53906 1.59749 8.625C1.49971 8.79722 1.47401 9.00111 1.526 9.1922C1.57799 9.38329 1.70344 9.54606 1.87499 9.645L8.62499 13.545C8.73901 13.6108 8.86834 13.6455 8.99999 13.6455C9.13164 13.6455 9.26098 13.6108 9.37499 13.545L16.125 9.645C16.2965 9.54606 16.422 9.38329 16.474 9.1922C16.526 9.00111 16.5003 8.79722 16.4025 8.625C16.3535 8.53906 16.288 8.46367 16.2097 8.40315C16.1315 8.34264 16.042 8.29821 15.9465 8.27241C15.851 8.24662 15.7513 8.23997 15.6532 8.25286C15.5552 8.26575 15.4606 8.29791 15.375 8.3475V8.3775ZM15.375 11.3775L8.99999 15L2.62499 11.3475C2.53939 11.2979 2.44483 11.2657 2.34674 11.2529C2.24866 11.24 2.14899 11.2466 2.05349 11.2724C1.95798 11.2982 1.86853 11.3426 1.79027 11.4032C1.71201 11.4637 1.64649 11.5391 1.59749 11.625C1.49971 11.7972 1.47401 12.0011 1.526 12.1922C1.57799 12.3833 1.70344 12.5461 1.87499 12.645L8.62499 16.545C8.73901 16.6108 8.86834 16.6455 8.99999 16.6455C9.13164 16.6455 9.26098 16.6108 9.37499 16.545L16.125 12.645C16.2965 12.5461 16.422 12.3833 16.474 12.1922C16.526 12.0011 16.5003 11.7972 16.4025 11.625C16.3535 11.5391 16.288 11.4637 16.2097 11.4032C16.1315 11.3426 16.042 11.2982 15.9465 11.2724C15.851 11.2466 15.7513 11.24 15.6532 11.2529C15.5552 11.2657 15.4606 11.2979 15.375 11.3475V11.3775Z" fill="url(#paint0_linear_4001_9)"/>
<defs>
<linearGradient id="paint0_linear_4001_9" x1="1.49969" y1="16.6455" x2="16.7878" y2="1.64765" gradientUnits="userSpaceOnUse">
<stop stop-color="#2589E7"/>
<stop offset="1" stop-color="#1B2EDA"/>
</linearGradient>
</defs>
</svg>
