<svg width="18" height="18" viewBox="0 0 18 18" fill="none" xmlns="http://www.w3.org/2000/svg">
<path d="M12.75 6.8775C12.6095 6.73781 12.4194 6.65941 12.2212 6.65941C12.0231 6.65941 11.833 6.73781 11.6925 6.8775L8.99999 9.5325L6.34499 6.8775C6.20447 6.73781 6.01438 6.65941 5.81624 6.65941C5.6181 6.65941 5.42801 6.73781 5.28749 6.8775C5.2172 6.94723 5.1614 7.03018 5.12332 7.12157C5.08525 7.21296 5.06564 7.31099 5.06564 7.41C5.06564 7.50901 5.08525 7.60704 5.12332 7.69844C5.1614 7.78983 5.2172 7.87278 5.28749 7.9425L8.46749 11.1225C8.53721 11.1928 8.62016 11.2486 8.71156 11.2867C8.80295 11.3247 8.90098 11.3444 8.99999 11.3444C9.099 11.3444 9.19703 11.3247 9.28842 11.2867C9.37982 11.2486 9.46277 11.1928 9.53249 11.1225L12.75 7.9425C12.8203 7.87278 12.8761 7.78983 12.9142 7.69844C12.9522 7.60704 12.9718 7.50901 12.9718 7.41C12.9718 7.31099 12.9522 7.21296 12.9142 7.12157C12.8761 7.03018 12.8203 6.94723 12.75 6.8775Z" fill="#1F222E"/>
</svg>
