<svg width="18" height="18" viewBox="0 0 18 18" fill="none" xmlns="http://www.w3.org/2000/svg">
<path d="M14.58 9.75002C14.415 9.75002 14.2425 9.69752 14.0775 9.66002C13.7434 9.58639 13.415 9.48864 13.095 9.36752C12.7471 9.24095 12.3646 9.24752 12.0212 9.38598C11.6779 9.52444 11.3978 9.785 11.235 10.1175L11.07 10.455C10.3395 10.0487 9.66824 9.54395 9.075 8.95502C8.48608 8.36179 7.98137 7.69052 7.575 6.96002L7.89 6.75002C8.22252 6.58721 8.48309 6.30717 8.62154 5.96379C8.76 5.62041 8.76658 5.23796 8.64 4.89002C8.52092 4.56934 8.4232 4.24112 8.3475 3.90752C8.31 3.74252 8.28 3.57002 8.2575 3.39752C8.16642 2.86924 7.88972 2.39083 7.47722 2.04845C7.06471 1.70608 6.54352 1.52223 6.0075 1.53002H3.7575C3.43427 1.52699 3.11419 1.59363 2.81903 1.72542C2.52388 1.85721 2.26058 2.05105 2.04707 2.29373C1.83356 2.53642 1.67485 2.82227 1.58174 3.13181C1.48863 3.44135 1.46331 3.76732 1.5075 4.08752C1.90705 7.22956 3.34202 10.1489 5.58574 12.3845C7.82946 14.6201 10.754 16.0444 13.8975 16.4325H14.1825C14.7356 16.4333 15.2695 16.2304 15.6825 15.8625C15.9198 15.6503 16.1093 15.3902 16.2386 15.0993C16.3679 14.8084 16.434 14.4934 16.4325 14.175V11.925C16.4233 11.4041 16.2336 10.9024 15.8958 10.5058C15.5579 10.1091 15.0929 9.84199 14.58 9.75002ZM14.955 14.25C14.9549 14.3565 14.9321 14.4618 14.8881 14.5587C14.8441 14.6557 14.78 14.7422 14.7 14.8125C14.6164 14.8853 14.5185 14.9396 14.4125 14.9719C14.3065 15.0042 14.1949 15.0138 14.085 15C11.2762 14.6399 8.66718 13.3549 6.66954 11.3477C4.6719 9.34059 3.39931 6.72553 3.0525 3.91502C3.04056 3.80516 3.05102 3.69402 3.08325 3.58832C3.11548 3.48261 3.1688 3.38454 3.24 3.30002C3.31028 3.22002 3.3968 3.1559 3.49378 3.11194C3.59077 3.06797 3.69601 3.04516 3.8025 3.04502H6.0525C6.22691 3.04114 6.39722 3.09818 6.53411 3.20633C6.671 3.31447 6.76591 3.46695 6.8025 3.63752C6.8325 3.84252 6.87 4.04502 6.915 4.24502C7.00164 4.64038 7.11694 5.02891 7.26 5.40752L6.21 5.89502C6.12022 5.93621 6.03947 5.99473 5.97237 6.06722C5.90527 6.13971 5.85315 6.22473 5.819 6.31742C5.78486 6.4101 5.76935 6.50862 5.77339 6.60731C5.77742 6.70601 5.8009 6.80293 5.8425 6.89252C6.9219 9.20459 8.78043 11.0631 11.0925 12.1425C11.2751 12.2175 11.4799 12.2175 11.6625 12.1425C11.756 12.1091 11.842 12.0574 11.9154 11.9904C11.9888 11.9235 12.0481 11.8426 12.09 11.7525L12.555 10.7025C12.9427 10.8412 13.3384 10.9564 13.74 11.0475C13.94 11.0925 14.1425 11.13 14.3475 11.16C14.5181 11.1966 14.6706 11.2915 14.7787 11.4284C14.8868 11.5653 14.9439 11.7356 14.94 11.91L14.955 14.25Z" fill="white"/>
</svg>
