<svg width="101" height="69" viewBox="0 0 101 69" fill="none" xmlns="http://www.w3.org/2000/svg">
<path d="M10.791 21.564C8.69357 21.564 6.82156 21.1098 5.17498 20.2014C3.54799 19.2733 2.27385 17.9996 1.35255 16.3803C0.45085 14.7413 0 12.8752 0 10.782C0 8.68878 0.45085 6.83254 1.35255 5.21327C2.27385 3.57425 3.54799 2.30055 5.17498 1.39218C6.82156 0.46406 8.68377 0 10.7616 0C13.7999 0 16.358 1.06635 18.4359 3.19905L16.1424 5.33175C14.7114 3.8902 12.957 3.16943 10.8792 3.16943C9.42865 3.16943 8.14471 3.49526 7.02738 4.14692C5.91006 4.77883 5.03776 5.67733 4.41049 6.84242C3.78322 7.98776 3.46959 9.30095 3.46959 10.782C3.46959 12.263 3.78322 13.5861 4.41049 14.7512C5.03776 15.8965 5.91006 16.795 7.02738 17.4467C8.14471 18.0786 9.42865 18.3946 10.8792 18.3946C11.9181 18.3946 12.908 18.207 13.8489 17.8318C14.8094 17.4368 15.6523 16.8839 16.3776 16.173L18.5829 18.4834C16.505 20.5371 13.9077 21.564 10.791 21.564Z" fill="white"/>
<path d="M24.5007 14.7216V21.1493H21.2076V6.51659H24.5007V12.6185L29.7051 6.51659H33.7334L27.6763 13.5367L34.6155 21.1493H30.3226L24.5007 14.7216Z" fill="white"/>
<path d="M36.4835 6.51659H39.7766V11.9964L39.7472 15.6991L47.5097 6.51659H50.1854V21.1493H46.8922V15.2844L46.9216 11.9372L39.2474 21.1493H36.4835V6.51659Z" fill="white"/>
<path d="M52.5836 18.128H54.2008C54.6908 17.575 55.0535 16.9727 55.2887 16.3211C55.5239 15.6694 55.7004 14.7314 55.818 13.5071L56.4648 6.51659H67.3147V18.128H69.5199V25H66.4031V21.1493H55.7298V25H52.5836V18.128ZM64.0215 18.1872V9.44905H59.3758L59.0229 13.7145C58.9445 14.8006 58.8073 15.6793 58.6113 16.3507C58.4153 17.0221 58.1408 17.6343 57.788 18.1872H64.0215Z" fill="white"/>
<path d="M75.2099 14.7216V21.1493H71.9167V6.51659H75.2099V12.6185L80.4143 6.51659H84.4425L78.3854 13.5367L85.3246 21.1493H81.0317L75.2099 14.7216Z" fill="white"/>
<path d="M92.7377 21.4751C91.3263 21.4751 90.0718 21.1592 88.9741 20.5273C87.8959 19.8756 87.053 18.9672 86.4454 17.8021C85.8377 16.637 85.5339 15.314 85.5339 13.8329C85.5339 12.3519 85.8377 11.0288 86.4454 9.86374C87.053 8.69866 87.8959 7.80016 88.9741 7.16825C90.0718 6.51659 91.3263 6.19076 92.7377 6.19076C93.855 6.19076 94.8743 6.3981 95.7956 6.8128C96.7169 7.20774 97.4618 7.76066 98.0303 8.47156L98.0597 6.51659H101V21.1493H98.0597L98.0303 19.1943C97.4618 19.9052 96.7169 20.468 95.7956 20.8827C94.8743 21.2776 93.855 21.4751 92.7377 21.4751ZM88.827 13.8329C88.827 15.1955 89.2387 16.3112 90.062 17.1801C90.8853 18.0292 91.9536 18.4538 93.2669 18.4538C94.5803 18.4538 95.6486 18.0292 96.4719 17.1801C97.2952 16.3112 97.7068 15.1955 97.7068 13.8329C97.7068 12.4704 97.2952 11.3645 96.4719 10.5154C95.6486 9.64652 94.5803 9.21208 93.2669 9.21208C91.9536 9.21208 90.8853 9.64652 90.062 10.5154C89.2387 11.3645 88.827 12.4704 88.827 13.8329Z" fill="white"/>
<path d="M15.8639 68.8017C11.4704 68.8017 8.05325 67.876 5.61243 66.0248C3.20414 64.1405 2 61.4959 2 58.0909H7.76035C7.76035 59.7769 8.46006 61.0826 9.85947 62.0083C11.2589 62.9008 13.2441 63.3471 15.8151 63.3471C18.1908 63.3471 20.0621 62.8182 21.429 61.7603C22.8284 60.7025 23.5281 59.2479 23.5281 57.3967C23.5281 55.5785 22.8447 54.1736 21.4778 53.1818C20.1435 52.157 18.2722 51.6446 15.8639 51.6446H2.97633V33.6942H27.4334V39.1488H8.63905V46.2893H15.8639C20.0947 46.2893 23.3979 47.281 25.7737 49.2645C28.1494 51.2149 29.3373 53.9587 29.3373 57.4959C29.3373 59.7107 28.7678 61.6777 27.6287 63.3967C26.5222 65.1157 24.9438 66.4545 22.8935 67.4132C20.8757 68.3388 18.5325 68.8017 15.8639 68.8017Z" fill="white"/>
<path d="M49.0226 69C46.0936 69 43.5063 68.3884 41.2607 67.1653C39.0152 65.9421 37.274 64.2397 36.0373 62.0579C34.8007 59.843 34.1823 57.2975 34.1823 54.4215V47.6281C34.1823 44.7521 34.8007 42.2066 36.0373 39.9917C37.274 37.7769 39.0152 36.0579 41.2607 34.8347C43.5063 33.6116 46.0936 33 49.0226 33C51.9515 33 54.5388 33.6116 56.7844 34.8347C59.03 36.0579 60.7711 37.7769 62.0078 39.9917C63.2445 42.2066 63.8628 44.7521 63.8628 47.6281V54.4215C63.8628 57.2975 63.2445 59.843 62.0078 62.0579C60.7711 64.2397 59.03 65.9421 56.7844 67.1653C54.5388 68.3884 51.9515 69 49.0226 69ZM39.9427 54.4215C39.9427 57.1653 40.7726 59.3802 42.4323 61.0661C44.0921 62.719 46.2888 63.5455 49.0226 63.5455C51.7563 63.5455 53.953 62.719 55.6128 61.0661C57.2726 59.3802 58.1024 57.1653 58.1024 54.4215V47.6281C58.1024 44.8843 57.2726 42.686 55.6128 41.0331C53.953 39.3471 51.7563 38.5041 49.0226 38.5041C46.2888 38.5041 44.0921 39.3471 42.4323 41.0331C40.7726 42.686 39.9427 44.8843 39.9427 47.6281V54.4215Z" fill="white"/>
<path d="M75.9571 33.2479C77.9098 33.2479 79.5533 33.7769 80.8876 34.8347C82.2219 35.8595 83.0355 37.1157 83.3284 38.6033C83.6538 40.0579 83.6538 41.5289 83.3284 43.0165C83.0355 44.4711 82.2219 45.7273 80.8876 46.7851C79.5533 47.8099 77.9098 48.3223 75.9571 48.3223C74.5577 48.3223 73.3047 48.0413 72.1982 47.4793C71.0917 46.9174 70.2618 46.2066 69.7086 45.3471C69.1553 44.4545 68.7322 43.4793 68.4393 42.4215C68.179 41.3306 68.179 40.2562 68.4393 39.1983C68.7322 38.1074 69.1553 37.1322 69.7086 36.2727C70.2618 35.3802 71.0917 34.6529 72.1982 34.0909C73.3047 33.5289 74.5577 33.2479 75.9571 33.2479ZM93.3846 33.595H98.2175L76.1524 68.405H71.2707L93.3846 33.595ZM78.3491 37.7107C77.6982 37.1818 76.8846 36.9174 75.9083 36.9174C74.932 36.9174 74.1021 37.1818 73.4186 37.7107C72.7678 38.2397 72.3609 38.8843 72.1982 39.6446C72.068 40.3719 72.0843 41.1157 72.247 41.876C72.4098 42.6364 72.8328 43.281 73.5163 43.8099C74.1997 44.3388 75.0296 44.6033 76.0059 44.6033C76.9822 44.6033 77.7959 44.3388 78.4467 43.8099C79.0976 43.281 79.4882 42.6364 79.6183 41.876C79.7811 41.1157 79.7811 40.3719 79.6183 39.6446C79.4556 38.8843 79.0325 38.2397 78.3491 37.7107ZM93.3846 53.6777C95.3373 53.6777 96.9808 54.2066 98.3151 55.2645C99.6494 56.2893 100.463 57.5455 100.756 59.0331C101.081 60.4876 101.081 61.9587 100.756 63.4463C100.463 64.9008 99.6494 66.157 98.3151 67.2149C96.9808 68.2397 95.3373 68.7521 93.3846 68.7521C91.7574 68.7521 90.3417 68.3884 89.1376 67.6612C87.966 66.9008 87.1035 65.9587 86.5503 64.8347C86.0296 63.7107 85.7692 62.5041 85.7692 61.2149C85.7692 59.9256 86.0296 58.719 86.5503 57.595C87.1035 56.4711 87.966 55.5455 89.1376 54.8182C90.3417 54.0578 91.7574 53.6777 93.3846 53.6777ZM95.7766 58.1405C95.1257 57.6116 94.3121 57.3471 93.3358 57.3471C92.3595 57.3471 91.5296 57.6116 90.8462 58.1405C90.1953 58.6694 89.7885 59.3141 89.6257 60.0744C89.4956 60.8017 89.5118 61.5455 89.6746 62.3058C89.8373 63.0661 90.2604 63.7107 90.9438 64.2397C91.6272 64.7686 92.4571 65.0331 93.4334 65.0331C94.4098 65.0331 95.2234 64.7686 95.8743 64.2397C96.5251 63.7107 96.9157 63.0826 97.0459 62.3554C97.2086 61.595 97.2086 60.8347 97.0459 60.0744C96.8831 59.3141 96.4601 58.6694 95.7766 58.1405Z" fill="white"/>
</svg>
