<svg width="18" height="18" viewBox="0 0 18 18" fill="none" xmlns="http://www.w3.org/2000/svg">
<path d="M12.75 6.87752C12.6095 6.73783 12.4194 6.65942 12.2212 6.65942C12.0231 6.65942 11.833 6.73783 11.6925 6.87752L8.99999 9.53252L6.34499 6.87752C6.20447 6.73783 6.01438 6.65942 5.81624 6.65942C5.6181 6.65942 5.42801 6.73783 5.28749 6.87752C5.2172 6.94724 5.1614 7.03019 5.12332 7.12159C5.08525 7.21298 5.06564 7.31101 5.06564 7.41002C5.06564 7.50903 5.08525 7.60706 5.12332 7.69845C5.1614 7.78985 5.2172 7.8728 5.28749 7.94252L8.46749 11.1225C8.53721 11.1928 8.62016 11.2486 8.71156 11.2867C8.80295 11.3248 8.90098 11.3444 8.99999 11.3444C9.099 11.3444 9.19703 11.3248 9.28842 11.2867C9.37982 11.2486 9.46277 11.1928 9.53249 11.1225L12.75 7.94252C12.8203 7.8728 12.8761 7.78985 12.9142 7.69845C12.9522 7.60706 12.9718 7.50903 12.9718 7.41002C12.9718 7.31101 12.9522 7.21298 12.9142 7.12159C12.8761 7.03019 12.8203 6.94724 12.75 6.87752Z" fill="white"/>
</svg>
